<?xml version="1.0" standalone="no"?>
<svg xmlns:xlink="http://www.w3.org/1999/xlink" id="wave" style="transform:rotate(0deg); transition: 0.3s" viewBox="0 0 1440 110" version="1.1" xmlns="http://www.w3.org/2000/svg"><defs><linearGradient id="sw-gradient-0" x1="0" x2="0" y1="1" y2="0"><stop stop-color="rgba(114, 9, 183, 1)" offset="0%"/><stop stop-color="rgba(223.445, 62.524, 136.088, 1)" offset="100%"/></linearGradient></defs><path style="transform:translate(0, 0px); opacity:1" fill="url(#sw-gradient-0)" d="M0,22L26.7,20.2C53.3,18,107,15,160,18.3C213.3,22,267,33,320,36.7C373.3,40,427,37,480,34.8C533.3,33,587,33,640,31.2C693.3,29,747,26,800,25.7C853.3,26,907,29,960,36.7C1013.3,44,1067,55,1120,49.5C1173.3,44,1227,22,1280,27.5C1333.3,33,1387,66,1440,75.2C1493.3,84,1547,70,1600,66C1653.3,62,1707,70,1760,69.7C1813.3,70,1867,62,1920,62.3C1973.3,62,2027,70,2080,60.5C2133.3,51,2187,26,2240,12.8C2293.3,0,2347,0,2400,7.3C2453.3,15,2507,29,2560,45.8C2613.3,62,2667,81,2720,77C2773.3,73,2827,48,2880,40.3C2933.3,33,2987,44,3040,53.2C3093.3,62,3147,70,3200,60.5C3253.3,51,3307,26,3360,29.3C3413.3,33,3467,66,3520,69.7C3573.3,73,3627,48,3680,47.7C3733.3,48,3787,73,3813,86.2L3840,99L3840,110L3813.3,110C3786.7,110,3733,110,3680,110C3626.7,110,3573,110,3520,110C3466.7,110,3413,110,3360,110C3306.7,110,3253,110,3200,110C3146.7,110,3093,110,3040,110C2986.7,110,2933,110,2880,110C2826.7,110,2773,110,2720,110C2666.7,110,2613,110,2560,110C2506.7,110,2453,110,2400,110C2346.7,110,2293,110,2240,110C2186.7,110,2133,110,2080,110C2026.7,110,1973,110,1920,110C1866.7,110,1813,110,1760,110C1706.7,110,1653,110,1600,110C1546.7,110,1493,110,1440,110C1386.7,110,1333,110,1280,110C1226.7,110,1173,110,1120,110C1066.7,110,1013,110,960,110C906.7,110,853,110,800,110C746.7,110,693,110,640,110C586.7,110,533,110,480,110C426.7,110,373,110,320,110C266.7,110,213,110,160,110C106.7,110,53,110,27,110L0,110Z"/></svg>