<?xml version="1.0" standalone="no"?>
<svg xmlns:xlink="http://www.w3.org/1999/xlink" id="wave" style="transform:rotate(0deg); transition: 0.3s" viewBox="0 0 1440 110" version="1.1" xmlns="http://www.w3.org/2000/svg"><defs><linearGradient id="sw-gradient-0" x1="0" x2="0" y1="1" y2="0"><stop stop-color="rgba(135.283, 42.699, 196.124, 1)" offset="0%"/><stop stop-color="rgba(173.356, 56.338, 109.832, 1)" offset="100%"/></linearGradient></defs><path style="transform:translate(0, 0px); opacity:1" fill="url(#sw-gradient-0)" d="M0,22L26.7,27.5C53.3,33,107,44,160,40.3C213.3,37,267,18,320,12.8C373.3,7,427,15,480,31.2C533.3,48,587,73,640,84.3C693.3,95,747,92,800,86.2C853.3,81,907,73,960,73.3C1013.3,73,1067,81,1120,77C1173.3,73,1227,59,1280,47.7C1333.3,37,1387,29,1440,23.8C1493.3,18,1547,15,1600,20.2C1653.3,26,1707,40,1760,45.8C1813.3,51,1867,48,1920,45.8C1973.3,44,2027,44,2080,38.5C2133.3,33,2187,22,2240,22C2293.3,22,2347,33,2400,44C2453.3,55,2507,66,2560,73.3C2613.3,81,2667,84,2720,77C2773.3,70,2827,51,2880,45.8C2933.3,40,2987,48,3040,47.7C3093.3,48,3147,40,3200,38.5C3253.3,37,3307,40,3360,38.5C3413.3,37,3467,29,3520,27.5C3573.3,26,3627,29,3680,29.3C3733.3,29,3787,26,3813,23.8L3840,22L3840,110L3813.3,110C3786.7,110,3733,110,3680,110C3626.7,110,3573,110,3520,110C3466.7,110,3413,110,3360,110C3306.7,110,3253,110,3200,110C3146.7,110,3093,110,3040,110C2986.7,110,2933,110,2880,110C2826.7,110,2773,110,2720,110C2666.7,110,2613,110,2560,110C2506.7,110,2453,110,2400,110C2346.7,110,2293,110,2240,110C2186.7,110,2133,110,2080,110C2026.7,110,1973,110,1920,110C1866.7,110,1813,110,1760,110C1706.7,110,1653,110,1600,110C1546.7,110,1493,110,1440,110C1386.7,110,1333,110,1280,110C1226.7,110,1173,110,1120,110C1066.7,110,1013,110,960,110C906.7,110,853,110,800,110C746.7,110,693,110,640,110C586.7,110,533,110,480,110C426.7,110,373,110,320,110C266.7,110,213,110,160,110C106.7,110,53,110,27,110L0,110Z"/></svg>