<?xml version="1.0" standalone="no"?>
<svg xmlns:xlink="http://www.w3.org/1999/xlink" id="wave" style="transform:rotate(0deg); transition: 0.3s" viewBox="0 0 1440 110" version="1.1" xmlns="http://www.w3.org/2000/svg"><defs><linearGradient id="sw-gradient-0" x1="0" x2="0" y1="1" y2="0"><stop stop-color="rgba(114, 9, 183, 1)" offset="0%"/><stop stop-color="rgba(247, 37, 133, 1)" offset="100%"/></linearGradient></defs><path style="transform:translate(0, 0px); opacity:1" fill="url(#sw-gradient-0)" d="M0,33L26.7,40.3C53.3,48,107,62,160,56.8C213.3,51,267,26,320,16.5C373.3,7,427,15,480,16.5C533.3,18,587,15,640,23.8C693.3,33,747,55,800,60.5C853.3,66,907,55,960,51.3C1013.3,48,1067,51,1120,45.8C1173.3,40,1227,26,1280,16.5C1333.3,7,1387,4,1440,11C1493.3,18,1547,37,1600,47.7C1653.3,59,1707,62,1760,60.5C1813.3,59,1867,51,1920,56.8C1973.3,62,2027,81,2080,86.2C2133.3,92,2187,84,2240,67.8C2293.3,51,2347,26,2400,14.7C2453.3,4,2507,7,2560,12.8C2613.3,18,2667,26,2720,34.8C2773.3,44,2827,55,2880,51.3C2933.3,48,2987,29,3040,22C3093.3,15,3147,18,3200,16.5C3253.3,15,3307,7,3360,9.2C3413.3,11,3467,22,3520,33C3573.3,44,3627,55,3680,62.3C3733.3,70,3787,73,3813,75.2L3840,77L3840,110L3813.3,110C3786.7,110,3733,110,3680,110C3626.7,110,3573,110,3520,110C3466.7,110,3413,110,3360,110C3306.7,110,3253,110,3200,110C3146.7,110,3093,110,3040,110C2986.7,110,2933,110,2880,110C2826.7,110,2773,110,2720,110C2666.7,110,2613,110,2560,110C2506.7,110,2453,110,2400,110C2346.7,110,2293,110,2240,110C2186.7,110,2133,110,2080,110C2026.7,110,1973,110,1920,110C1866.7,110,1813,110,1760,110C1706.7,110,1653,110,1600,110C1546.7,110,1493,110,1440,110C1386.7,110,1333,110,1280,110C1226.7,110,1173,110,1120,110C1066.7,110,1013,110,960,110C906.7,110,853,110,800,110C746.7,110,693,110,640,110C586.7,110,533,110,480,110C426.7,110,373,110,320,110C266.7,110,213,110,160,110C106.7,110,53,110,27,110L0,110Z"/></svg>