<?xml version="1.0" standalone="no"?>
<svg xmlns:xlink="http://www.w3.org/1999/xlink" id="wave" style="transform:rotate(0deg); transition: 0.3s" viewBox="0 0 1440 110" version="1.1" xmlns="http://www.w3.org/2000/svg"><defs><linearGradient id="sw-gradient-0" x1="0" x2="0" y1="1" y2="0"><stop stop-color="rgba(114, 9, 183, 1)" offset="0%"/><stop stop-color="rgba(216.615, 87.517, 146.533, 1)" offset="100%"/></linearGradient></defs><path style="transform:translate(0, 0px); opacity:1" fill="url(#sw-gradient-0)" d="M0,77L26.7,73.3C53.3,70,107,62,160,55C213.3,48,267,40,320,34.8C373.3,29,427,26,480,33C533.3,40,587,59,640,60.5C693.3,62,747,48,800,49.5C853.3,51,907,70,960,80.7C1013.3,92,1067,95,1120,95.3C1173.3,95,1227,92,1280,80.7C1333.3,70,1387,51,1440,47.7C1493.3,44,1547,55,1600,53.2C1653.3,51,1707,37,1760,38.5C1813.3,40,1867,59,1920,69.7C1973.3,81,2027,84,2080,78.8C2133.3,73,2187,59,2240,60.5C2293.3,62,2347,81,2400,84.3C2453.3,88,2507,77,2560,60.5C2613.3,44,2667,22,2720,16.5C2773.3,11,2827,22,2880,34.8C2933.3,48,2987,62,3040,58.7C3093.3,55,3147,33,3200,33C3253.3,33,3307,55,3360,53.2C3413.3,51,3467,26,3520,16.5C3573.3,7,3627,15,3680,23.8C3733.3,33,3787,44,3813,49.5L3840,55L3840,110L3813.3,110C3786.7,110,3733,110,3680,110C3626.7,110,3573,110,3520,110C3466.7,110,3413,110,3360,110C3306.7,110,3253,110,3200,110C3146.7,110,3093,110,3040,110C2986.7,110,2933,110,2880,110C2826.7,110,2773,110,2720,110C2666.7,110,2613,110,2560,110C2506.7,110,2453,110,2400,110C2346.7,110,2293,110,2240,110C2186.7,110,2133,110,2080,110C2026.7,110,1973,110,1920,110C1866.7,110,1813,110,1760,110C1706.7,110,1653,110,1600,110C1546.7,110,1493,110,1440,110C1386.7,110,1333,110,1280,110C1226.7,110,1173,110,1120,110C1066.7,110,1013,110,960,110C906.7,110,853,110,800,110C746.7,110,693,110,640,110C586.7,110,533,110,480,110C426.7,110,373,110,320,110C266.7,110,213,110,160,110C106.7,110,53,110,27,110L0,110Z"/></svg>